<?xml version="1.0"?>
<svg width="267" height="151" xmlns="http://www.w3.org/2000/svg" xmlns:svg="http://www.w3.org/2000/svg" xmlns:xlink="http://www.w3.org/1999/xlink" version="1.1">
 <metadata id="metadata173686">image/svg+xml</metadata>

 <linearGradient id="3d_gradient2-logo-a5357689-e29f-4738-950f-5c74d987b3d7" spreadMethod="pad" x1="30%" x2="-10%" y1="120%" y2="30%">
  <stop id="stop173661" offset="0%" stop-color="#ffffff"/>
  <stop id="stop173663" offset="100%" stop-color="#000000"/>
 </linearGradient>
 <linearGradient gradientTransform="rotate(-30)" id="3d_gradient3-logo-a5357689-e29f-4738-950f-5c74d987b3d7" spreadMethod="pad" x1="30%" x2="-10%" y1="120%" y2="30%">
  <stop id="stop173666" offset="0%" stop-color="#ffffff"/>
  <stop id="stop173668" offset="50%" stop-color="#cccccc"/>
  <stop id="stop173670" offset="100%" stop-color="#000000"/>
 </linearGradient>
 <g class="layer" display="inline">
  <title>Layer 1</title>
  <g fill="#FFFFFF" id="logo-group" transform="translate(-5.47 -6.29) translate(-283 -302) translate(-1.57 0) matrix(1 0 0 1 -88.53 0)">
   <image display="none" height="480" id="container" transform="translate(0 0)" width="480" x="272" y="144"/>
   <g fill="#FFFFFF" id="logo-center" transform="translate(0 0)">
    <image display="none" id="icon_container" x="0" y="0"/>
    <g fill="#FFFFFF" font-family="&#x27;Uni Neue&#x27;" font-size="32px" font-style="normal" font-weight="300" id="slogan" text-anchor="middle" transform="translate(0 0)">
     <path d="m459.98,-22.88c-0.12,0 -0.19,0.06 -0.19,0.19l0,22.5c0,0.13 0.07,0.19 0.19,0.19l0.68,0c0.12,0 0.19,-0.06 0.19,-0.19l0,-8.71l6.24,0c4.99,0 7.81,-2.56 7.81,-6.97c0,-4.35 -2.79,-7.01 -7.81,-7.01l-7.11,0zm0.87,12.96l0,-11.97l6.14,0c4.51,0 6.85,2.18 6.85,6.02c0,3.84 -2.34,5.95 -6.85,5.95l-6.14,0z" fill="#5C6882" id="path173688" stroke="#5C6882" stroke-miterlimit="2" stroke-width="0px" transform="translate(1.1368683772161603e-13 386.0176) translate(429.4486849999999 37.9648) scale(1.54) translate(-459.7915 22.88)"/>
     <path d="m479.51,0c0.13,0 0.2,-0.06 0.2,-0.19l0,-14.79c1.37,-0.54 3.04,-0.83 4.57,-0.83c1.06,0 2.18,0.1 3.17,0.26c0.13,0.03 0.19,-0.03 0.19,-0.16l0,-0.55c0,-0.12 -0.03,-0.19 -0.19,-0.22c-1.02,-0.16 -2.14,-0.29 -3.23,-0.29c-1.83,0 -3.84,0.39 -5.38,1.12c-0.09,0.03 -0.16,0.13 -0.16,0.23l0,15.23c0,0.13 0.1,0.19 0.19,0.19l0.64,0z" fill="#5C6882" id="path173690" stroke="#5C6882" stroke-miterlimit="2" stroke-width="0px" transform="translate(1.1368683772161603e-13 386.0176) translate(458.54005499999994 47.37728) scale(1.54) translate(-478.682 16.768)"/>
     <path d="m502.42,-5.7l0,-5.05c0,-3.36 -2.31,-6.02 -6.66,-6.02c-4.32,0 -6.65,2.66 -6.65,6.02l0,5.05c0,3.4 2.33,6.02 6.65,6.02c4.35,0 6.66,-2.62 6.66,-6.02zm-12.29,0l0,-5.05c0,-2.82 1.89,-5.06 5.63,-5.06c3.78,0 5.63,2.24 5.63,5.06l0,5.05c0,2.85 -1.85,5.09 -5.63,5.09c-3.74,0 -5.63,-2.24 -5.63,-5.09z" fill="#5C6882" id="path173692" stroke="#5C6882" stroke-miterlimit="2" stroke-width="0px" transform="translate(1.1368683772161603e-13 386.0176) translate(474.5930149999999 47.37728) scale(1.54) translate(-489.106 16.768)"/>
     <path d="m529.28,-5.73c0,-3.42 -2.17,-5.12 -7.84,-6.46c-4.44,-1.06 -6.72,-2.5 -6.72,-5.41c0,-3.17 2.95,-4.61 6.31,-4.61c2.69,0.03 5.02,0.8 7.01,2.4c0.09,0.07 0.19,0.07 0.28,-0.06l0.32,-0.51c0.07,-0.07 0.1,-0.2 -0.03,-0.26c-2.14,-1.7 -4.45,-2.56 -7.45,-2.56c-4.07,0 -7.52,1.73 -7.52,5.54c0,3.48 2.68,5.37 7.58,6.49c5.15,1.19 6.98,2.53 6.98,5.44c0,3.36 -2.79,5.03 -6.76,5.03c-2.81,0 -4.92,-0.9 -7.23,-2.82c-0.09,-0.06 -0.19,-0.03 -0.29,0.06l-0.38,0.48c-0.06,0.1 -0.06,0.2 0.03,0.29c2.47,2.08 4.67,3.01 7.87,3.01c4.68,0 7.84,-2.14 7.84,-6.05z" fill="#5C6882" id="path173694" stroke="#5C6882" stroke-miterlimit="2" stroke-width="0px" transform="translate(1.1368683772161603e-13 386.0176) translate(512.1534609999999 37.471999999999994) scale(1.54) translate(-513.4959 23.2)"/>
     <path d="m545.98,-5.7l0,-5.05c0,-3.36 -2.3,-6.02 -6.66,-6.02c-4.32,0 -6.65,2.66 -6.65,6.02l0,5.05c0,3.4 2.33,6.02 6.65,6.02c4.36,0 6.66,-2.62 6.66,-6.02zm-12.29,0l0,-5.05c0,-2.82 1.89,-5.06 5.63,-5.06c3.78,0 5.64,2.24 5.64,5.06l0,5.05c0,2.85 -1.86,5.09 -5.64,5.09c-3.74,0 -5.63,-2.24 -5.63,-5.09z" fill="#5C6882" id="path173696" stroke="#5C6882" stroke-miterlimit="2" stroke-width="0px" transform="translate(1.1368683772161603e-13 386.0176) translate(541.6792649999999 47.37728) scale(1.54) translate(-532.6685 16.768)"/>
     <path d="m557.06,-22.18c0.16,0.04 0.26,-0.03 0.26,-0.16l0,-0.54c0,-0.13 -0.07,-0.19 -0.2,-0.22c-0.64,-0.07 -1.5,-0.1 -1.95,-0.1c-3.04,0 -4.89,1.95 -4.89,5.22l0,17.79c0,0.13 0.09,0.19 0.19,0.19l0.64,0c0.13,0 0.19,-0.06 0.19,-0.19l0,-15.27l5.6,0c0.1,0 0.19,-0.09 0.19,-0.22l0,-0.54c0,-0.1 -0.09,-0.2 -0.19,-0.2l-5.6,0l0,-1.56c0,-2.69 1.34,-4.29 3.94,-4.29c0.41,0 1.21,0.03 1.82,0.09z" fill="#5C6882" id="path173698" stroke="#5C6882" stroke-miterlimit="2" stroke-width="0px" transform="translate(1.1368683772161603e-13 386.0176) translate(568.795585 37.471999999999994) scale(1.54) translate(-550.2765 23.2)"/>
     <path d="m560.99,-4.96l0,-10.5l5.4,0c0.1,0 0.2,-0.09 0.2,-0.22l0,-0.54c0,-0.1 -0.1,-0.2 -0.2,-0.2l-5.4,0l0,-3.96c-0.04,-0.13 -0.1,-0.2 -0.23,-0.2l-0.61,0c-0.13,0 -0.19,0.07 -0.19,0.2l0,15.45c0,3.3 1.86,5.19 4.93,5.19c0.45,0 1.31,-0.04 1.92,-0.1c0.13,-0.03 0.19,-0.1 0.19,-0.22l0,-0.55c0,-0.13 -0.06,-0.19 -0.19,-0.19c-0.64,0.06 -1.44,0.1 -1.92,0.1c-2.56,0 -3.9,-1.57 -3.9,-4.26z" fill="#5C6882" id="path173700" stroke="#5C6882" stroke-miterlimit="2" stroke-width="0px" transform="translate(1.1368683772161603e-13 386.0176) translate(583.709715 41.51295999999999) scale(1.54) translate(-559.961 20.576)"/>
    </g>
    <g fill="#FFFFFF" font-family="&#x27;Uni Neue&#x27;" font-size="72px" font-style="normal" font-weight="300" id="title" text-anchor="middle" transform="translate(0 0)">
     <path d="m447.35,-51.48c-0.29,0 -0.44,0.14 -0.44,0.43l0,50.62c0,0.29 0.15,0.43 0.44,0.43l1.51,0c0.29,0 0.43,-0.14 0.43,-0.43l0,-19.59l14.04,0c11.23,0 17.57,-5.76 17.57,-15.69c0,-9.79 -6.27,-15.77 -17.57,-15.77l-15.98,0zm1.94,29.16l0,-26.93l13.82,0c10.16,0 15.41,4.9 15.41,13.54c0,8.64 -5.25,13.39 -15.41,13.39l-13.82,0z" fill="#F86D64" id="path173703" stroke="#F86D64" stroke-miterlimit="2" stroke-width="0px" transform="translate(0 309.7696) translate(378.5738799999999 -1.4799999999999969) scale(2) translate(-446.91369 51.48)"/>
     <path d="m515.55,-37.01c-0.28,0 -0.5,0.22 -0.5,0.51l0,32.97c-3.17,1.23 -6.91,2.16 -10.87,2.16c-8.07,0 -12.67,-4.1 -12.67,-12.45l0,-22.68c0,-0.29 -0.15,-0.51 -0.44,-0.51l-1.44,0c-0.28,0 -0.43,0.22 -0.43,0.51l0,22.68c0,9.64 5.69,14.54 14.98,14.54c4.61,0 9.07,-1.01 12.81,-2.74c0.29,-0.07 0.36,-0.36 0.36,-0.57l0,-33.91c0,-0.29 -0.14,-0.51 -0.43,-0.51l-1.37,0z" fill="#C46B6E" id="path173705" stroke="#C46B6E" stroke-miterlimit="2" stroke-width="0px" transform="translate(0 309.7696) translate(463.14912 27.46399999999999) scale(2) translate(-489.20131 37.008)"/>
     <path d="m530.1,0c0.29,0 0.43,-0.14 0.43,-0.43l0,-33.27c3.1,-1.22 6.84,-1.87 10.3,-1.87c2.38,0 4.9,0.22 7.13,0.58c0.29,0.07 0.43,-0.07 0.43,-0.36l0,-1.23c0,-0.28 -0.07,-0.43 -0.43,-0.5c-2.31,-0.36 -4.83,-0.65 -7.27,-0.65c-4.11,0 -8.64,0.87 -12.1,2.52c-0.22,0.07 -0.36,0.29 -0.36,0.51l0,34.27c0,0.29 0.22,0.43 0.43,0.43l1.44,0z" fill="#906A78" id="path173707" stroke="#906A78" stroke-miterlimit="2" stroke-width="0px" transform="translate(0 309.7696) translate(541.2061200000002 26.023999999999994) scale(2) translate(-528.22981 37.728)"/>
     <path d="m580.34,-24.05c0,-8.71 -5.9,-13.68 -14.33,-13.68c-8.42,0 -14.33,4.97 -14.33,13.68l0,11.67c0,8.28 6.77,13.1 14.33,13.1c6.12,0 10.59,-2.74 13.61,-5.54c0.29,-0.15 0.29,-0.36 0.07,-0.58l-0.79,-0.94c-0.14,-0.21 -0.36,-0.21 -0.58,-0.07c-2.73,2.45 -6.62,5.04 -12.24,5.04c-6.55,0 -12.09,-4.03 -12.09,-11.01l0,-4.76l25.92,0c0.21,0 0.43,-0.14 0.43,-0.43l0,-6.48zm-2.3,0l0,4.9l-24.05,0l0,-4.9c0,-7.41 4.75,-11.52 12.02,-11.52c7.2,0 12.03,4.18 12.03,11.52z" fill="#5C6882" id="path173709" stroke="#5C6882" stroke-miterlimit="2" stroke-width="0px" transform="translate(0 309.7696) translate(588.1141200000002 26.023999999999994) scale(2) translate(-551.68381 37.728)"/>
    </g>
    <image display="none" id="icon" x="0" y="0"/>
   </g>
  </g>
 </g>
</svg>