<svg width="809" height="200" viewBox="0 0 809 200" fill="none" xmlns="http://www.w3.org/2000/svg">
<g clip-path="url(#clip0_32_237)">
<path d="M336.598 1.51935H264.105V194.478H336.598V1.51935Z" fill="#9A8CFF"/>
<path d="M75.1708 1.64681H12.5582L0 1.3562L58.7002 194.606H174.764L233.373 1.64681H159.824L122.787 126.879H112.601L75.1708 1.64681Z" fill="#9A8CFF"/>
<path d="M442.506 1.64681H379.889L367.33 1.3562L426.031 194.606H542.095L600.703 1.64681H527.154L490.117 126.879H479.931L442.506 1.64681Z" fill="#9A8CFF"/>
<path d="M708.952 0C653.695 0 608.905 44.769 608.905 100C608.905 155.231 653.695 200 708.952 200C764.21 200 809 155.226 809 100C809 44.7741 764.205 0 708.952 0ZM708.952 137.025C688.493 137.025 671.91 120.45 671.91 100C671.91 79.5503 688.493 62.9754 708.952 62.9754C729.412 62.9754 745.995 79.5503 745.995 100C745.995 120.45 729.412 137.025 708.952 137.025Z" fill="#9A8CFF"/>
</g>
<defs>
<clipPath id="clip0_32_237">
<rect width="809" height="200" fill="white"/>
</clipPath>
</defs>
</svg>
